<svg width="23" height="24" viewBox="0 0 23 24" fill="none" xmlns="http://www.w3.org/2000/svg">
<path fill-rule="evenodd" clip-rule="evenodd" d="M6.32525 17.9476C6.03236 17.6547 6.03236 17.1798 6.32525 16.8869L17.9925 5.21967C18.2854 4.92678 18.7603 4.92678 19.0532 5.21967C19.3461 5.51256 19.3461 5.98744 19.0532 6.28033L7.38591 17.9476C7.09302 18.2405 6.61815 18.2405 6.32525 17.9476Z" fill="white"/>
<path fill-rule="evenodd" clip-rule="evenodd" d="M5.21967 5.36361C5.51256 5.07071 5.98744 5.07071 6.28033 5.36361L17.9476 17.0309C18.2405 17.3238 18.2405 17.7986 17.9476 18.0915C17.6547 18.3844 17.1798 18.3844 16.8869 18.0915L5.21967 6.42427C4.92678 6.13137 4.92678 5.6565 5.21967 5.36361Z" fill="white"/>
</svg>
